<mxfile host="65bd71144e">
    <diagram name="Page-1" id="zg38aGWF79S7r4fxKGMz">
        <mxGraphModel dx="818" dy="594" grid="1" gridSize="10" guides="1" tooltips="1" connect="1" arrows="1" fold="1" page="1" pageScale="1" pageWidth="1100" pageHeight="850" math="0" shadow="0">
            <root>
                <mxCell id="0"/>
                <mxCell id="1" parent="0"/>
                <mxCell id="u0XbRExmCuNNfpOn5gVT-2" value="" style="edgeStyle=orthogonalEdgeStyle;rounded=0;orthogonalLoop=1;jettySize=auto;html=1;entryX=0;entryY=0.5;entryDx=0;entryDy=0;" parent="1" source="zCuvRlgnnlcmeM7vBDEk-2" target="u0XbRExmCuNNfpOn5gVT-1" edge="1">
                    <mxGeometry relative="1" as="geometry">
                        <mxPoint x="510" y="585" as="targetPoint"/>
                    </mxGeometry>
                </mxCell>
                <mxCell id="zCuvRlgnnlcmeM7vBDEk-2" value="&lt;font color=&quot;#7ea6e0&quot;&gt;A&lt;/font&gt;: Классификация источников каталога LH&lt;br&gt;&lt;font style=&quot;font-family: &amp;quot;JetBrains Mono&amp;quot;, &amp;quot;Courier New&amp;quot;, monospace; text-align: start;&quot;&gt;&lt;font style=&quot;font-size: 8px;&quot; color=&quot;#7ea6e0&quot;&gt;classification_LH/lh_classification_6885.ipynb&lt;/font&gt;&lt;br&gt;&lt;ul style=&quot;font-size: 8px;&quot;&gt;&lt;li&gt;&lt;span style=&quot;background-color: rgb(255, 255, 255);&quot;&gt;Отождествление с внешними каталогами (Gaia, SDSS, DESI, Simbad)&lt;/span&gt;&lt;/li&gt;&lt;li&gt;Классификация по цвету и протяженности&lt;/li&gt;&lt;/ul&gt;&lt;span style=&quot;font-size: 8px;&quot;&gt;Ввод:&amp;nbsp;&lt;/span&gt;&lt;span style=&quot;font-family: &amp;quot;JetBrains Mono&amp;quot;, &amp;quot;Courier New&amp;quot;, monospace, Menlo, Monaco, &amp;quot;Courier New&amp;quot;, monospace;&quot;&gt;&lt;font style=&quot;font-size: 8px;&quot; color=&quot;#ff3399&quot;&gt;ERO_lhpv_03_23_sd01_a15_g14_desi_nway_match_21_10_22.gz_pkl, внешние каталоги&lt;/font&gt;&lt;/span&gt;&lt;span style=&quot;font-size: 8px; background-color: initial;&quot;&gt;&lt;br&gt;&lt;/span&gt;&lt;span style=&quot;font-size: 8px; background-color: initial;&quot;&gt;Вывод:&amp;nbsp;&lt;/span&gt;&lt;font style=&quot;font-size: 8px; background-color: initial; border-color: var(--border-color); text-align: center;&quot; color=&quot;#ff3399&quot; data-font-src=&quot;https://fonts.googleapis.com/css?family=JetBrains+Mono&quot; face=&quot;JetBrains Mono&quot;&gt;paper_lh_z_upd_new_columns_df.gz_pkl&lt;/font&gt;&lt;br&gt;&lt;/font&gt;" style="rounded=1;whiteSpace=wrap;html=1;" parent="1" vertex="1">
                    <mxGeometry x="140" y="262.5" width="350" height="140" as="geometry"/>
                </mxCell>
                <mxCell id="u0XbRExmCuNNfpOn5gVT-1" value="Объединение&amp;nbsp;&lt;font style=&quot;border-color: var(--border-color);&quot; color=&quot;#7ea6e0&quot;&gt;A &lt;/font&gt;&lt;font style=&quot;border-color: var(--border-color);&quot;&gt;и&lt;/font&gt;&lt;font style=&quot;border-color: var(--border-color);&quot; color=&quot;#7ea6e0&quot;&gt; B&lt;/font&gt;&lt;br&gt;&lt;font size=&quot;1&quot; face=&quot;JetBrains Mono, Courier New, monospace&quot;&gt;&lt;span style=&quot;text-align: start; font-size: 8px;&quot;&gt;&lt;font color=&quot;#7ea6e0&quot;&gt;XLF_LH/srgz_lh_eda.ipnb&lt;/font&gt;&lt;br&gt;&lt;/span&gt;&lt;/font&gt;" style="whiteSpace=wrap;html=1;rounded=1;container=1;" parent="1" vertex="1">
                    <mxGeometry x="380" y="490" width="430" height="300" as="geometry">
                        <mxRectangle x="260" y="460" width="150" height="40" as="alternateBounds"/>
                    </mxGeometry>
                </mxCell>
                <mxCell id="VeTJbm_CAm7v-MHVtlWF-10" value="&lt;ol&gt;&lt;li&gt;&lt;span style=&quot;font-size: 8px; font-family: &amp;quot;JetBrains Mono&amp;quot;, &amp;quot;Courier New&amp;quot;, monospace; background-color: initial;&quot;&gt;Предобработка каталога nnmag: добавление признаков srgz через корреляцию по оптическим координатам, объединение таблиц по рентгеновским координатам (файл &lt;font color=&quot;#ff3399&quot;&gt;srgz_xray_6885.gz_pkl&lt;/font&gt;). В результате у каждого компаньона nnmag есть признаки srgz и у каждого рентгеновского источника есть два типа компаньонов: nnmag и srgz&lt;/span&gt;&lt;/li&gt;&lt;/ol&gt;" style="rounded=0;whiteSpace=wrap;html=1;align=center;strokeColor=#B3B3B3;" parent="u0XbRExmCuNNfpOn5gVT-1" vertex="1">
                    <mxGeometry x="20.48" y="20" width="389.52" height="93.04" as="geometry"/>
                </mxCell>
                <mxCell id="VeTJbm_CAm7v-MHVtlWF-27" value="2.&amp;nbsp; &amp;nbsp; &amp;nbsp;&lt;font data-font-src=&quot;https://fonts.googleapis.com/css?family=JetBrains+Mono&quot; face=&quot;JetBrains Mono&quot; style=&quot;font-size: 8px;&quot;&gt;Финальные преобразования колонок: переименовывание, замена inf/-inf на nan и тп.&lt;/font&gt;&lt;br&gt;&lt;div style=&quot;text-align: left;&quot;&gt;&lt;br&gt;&lt;/div&gt;&lt;font face=&quot;JetBrains Mono&quot; style=&quot;border-color: var(--border-color); background-color: initial; font-size: 8px;&quot; data-font-src=&quot;https://fonts.googleapis.com/css?family=JetBrains+Mono&quot;&gt;Ввод:&amp;nbsp;&lt;/font&gt;&lt;font style=&quot;border-color: var(--border-color); background-color: initial; font-size: 8px;&quot; color=&quot;#ff3399&quot; data-font-src=&quot;https://fonts.googleapis.com/css?family=JetBrains+Mono&quot; face=&quot;JetBrains Mono&quot;&gt;paper_lh_z_upd_new_columns_df.gz_pkl,&amp;nbsp;&lt;/font&gt;&lt;font style=&quot;font-size: 8px;&quot; data-font-src=&quot;https://fonts.googleapis.com/css?family=JetBrains+Mono&quot; face=&quot;JetBrains Mono&quot;&gt;&lt;font color=&quot;#ff3399&quot;&gt;srgz_spec.pkl&lt;/font&gt;&lt;br&gt;Вывод:&lt;/font&gt;&lt;font style=&quot;font-size: 8px;&quot; data-font-src=&quot;https://fonts.googleapis.com/css?family=JetBrains+Mono&quot; face=&quot;JetBrains Mono&quot; color=&quot;#ff3399&quot;&gt;&amp;nbsp;&lt;/font&gt;&lt;font color=&quot;#ff3399&quot; data-font-src=&quot;https://fonts.googleapis.com/css?family=JetBrains+Mono&quot; face=&quot;JetBrains Mono&quot; style=&quot;font-size: 8px;&quot;&gt;class_zph_srgz_spec_df.gz_pkl&lt;/font&gt;" style="text;html=1;strokeColor=none;fillColor=none;align=center;verticalAlign=middle;whiteSpace=wrap;rounded=0;" parent="u0XbRExmCuNNfpOn5gVT-1" vertex="1">
                    <mxGeometry x="68.02190476190475" y="169.56521739130434" width="283.7180952380952" height="110.86956521739131" as="geometry"/>
                </mxCell>
                <mxCell id="u0XbRExmCuNNfpOn5gVT-3" value="&lt;font style=&quot;border-color: var(--border-color);&quot; color=&quot;#7ea6e0&quot;&gt;B&lt;/font&gt;:&amp;nbsp;&lt;span style=&quot;background-color: rgb(255, 255, 255);&quot;&gt;Отождествление с внешними каталогами&amp;nbsp;для источников srgz&lt;/span&gt;&lt;br&gt;&lt;font color=&quot;#7ea6e0&quot; size=&quot;1&quot; face=&quot;JetBrains Mono, Courier New, monospace&quot;&gt;&lt;span style=&quot;text-align: start; font-size: 8px;&quot;&gt;XLF_LH/srgz_classification.ipnb&lt;/span&gt;&lt;/font&gt;&lt;br&gt;&lt;ul&gt;&lt;li style=&quot;text-align: left;&quot;&gt;&lt;font data-font-src=&quot;https://fonts.googleapis.com/css?family=JetBrains+Mono&quot; face=&quot;JetBrains Mono&quot; style=&quot;font-size: 8px;&quot;&gt;Отождествление srgz&amp;nbsp;с внешними каталогами&lt;/font&gt;&lt;/li&gt;&lt;/ul&gt;&lt;div style=&quot;&quot;&gt;&lt;span style=&quot;font-size: 8px;&quot;&gt;Ввод: &lt;font color=&quot;#ff3399&quot;&gt;srgz_xray_6885.gz_pkl&lt;/font&gt;&lt;/span&gt;&lt;/div&gt;&lt;div style=&quot;&quot;&gt;&lt;span style=&quot;font-size: 8px;&quot;&gt;Вывод:&amp;nbsp;&lt;/span&gt;&lt;font color=&quot;#ff3399&quot; style=&quot;font-size: 8px;&quot; data-font-src=&quot;https://fonts.googleapis.com/css?family=JetBrains+Mono&quot; face=&quot;JetBrains Mono&quot;&gt;srgz_spec.pkl&lt;/font&gt;&lt;/div&gt;" style="rounded=1;whiteSpace=wrap;html=1;fillColor=#FFFFFF;strokeColor=#000000;align=center;" parent="1" vertex="1">
                    <mxGeometry x="660" y="260" width="250" height="145" as="geometry"/>
                </mxCell>
                <mxCell id="u0XbRExmCuNNfpOn5gVT-7" value="&lt;h1&gt;Классификация источников LH&lt;/h1&gt;&lt;p&gt;&lt;font data-font-src=&quot;https://fonts.googleapis.com/css?family=JetBrains+Mono&quot; face=&quot;JetBrains Mono&quot;&gt;Схема архитектуры пайплайна классификации&lt;/font&gt;&lt;/p&gt;" style="text;html=1;strokeColor=none;fillColor=none;spacing=5;spacingTop=-20;whiteSpace=wrap;overflow=hidden;rounded=0;" parent="1" vertex="1">
                    <mxGeometry x="150" y="90" width="480" height="120" as="geometry"/>
                </mxCell>
                <mxCell id="VeTJbm_CAm7v-MHVtlWF-12" value="" style="endArrow=classic;html=1;rounded=0;exitX=0.5;exitY=0;exitDx=0;exitDy=0;entryX=0;entryY=0.75;entryDx=0;entryDy=0;edgeStyle=orthogonalEdgeStyle;strokeColor=#B3B3B3;" parent="1" source="VeTJbm_CAm7v-MHVtlWF-10" target="u0XbRExmCuNNfpOn5gVT-3" edge="1">
                    <mxGeometry width="50" height="50" relative="1" as="geometry">
                        <mxPoint x="450" y="685" as="sourcePoint"/>
                        <mxPoint x="500" y="635" as="targetPoint"/>
                    </mxGeometry>
                </mxCell>
                <mxCell id="VeTJbm_CAm7v-MHVtlWF-21" value="" style="endArrow=baseDash;dashed=1;html=1;dashPattern=1 3;strokeWidth=2;rounded=0;exitX=1;exitY=0.5;exitDx=0;exitDy=0;entryX=0;entryY=0.5;entryDx=0;entryDy=0;strokeColor=#B3B3B3;endFill=0;edgeStyle=orthogonalEdgeStyle;" parent="1" source="zCuvRlgnnlcmeM7vBDEk-2" target="u0XbRExmCuNNfpOn5gVT-3" edge="1">
                    <mxGeometry width="50" height="50" relative="1" as="geometry">
                        <mxPoint x="520" y="485" as="sourcePoint"/>
                        <mxPoint x="570" y="435" as="targetPoint"/>
                    </mxGeometry>
                </mxCell>
                <mxCell id="VeTJbm_CAm7v-MHVtlWF-23" value="модифицированная копия" style="edgeLabel;html=1;align=center;verticalAlign=middle;resizable=0;points=[];fontColor=#B3B3B3;" parent="VeTJbm_CAm7v-MHVtlWF-21" connectable="0" vertex="1">
                    <mxGeometry x="-0.1429" relative="1" as="geometry">
                        <mxPoint x="13" y="-8" as="offset"/>
                    </mxGeometry>
                </mxCell>
                <mxCell id="VeTJbm_CAm7v-MHVtlWF-24" value="" style="endArrow=classic;html=1;rounded=0;exitX=0.75;exitY=1;exitDx=0;exitDy=0;edgeStyle=orthogonalEdgeStyle;entryX=1;entryY=0.5;entryDx=0;entryDy=0;" parent="1" source="u0XbRExmCuNNfpOn5gVT-3" target="u0XbRExmCuNNfpOn5gVT-1" edge="1">
                    <mxGeometry width="50" height="50" relative="1" as="geometry">
                        <mxPoint x="520" y="595" as="sourcePoint"/>
                        <mxPoint x="570" y="545" as="targetPoint"/>
                    </mxGeometry>
                </mxCell>
            </root>
        </mxGraphModel>
    </diagram>
</mxfile>